# xmcd
#
# Track frame offsets:
#	150
#	11399
#	24149
#	41582
#	61112
#	77301
#	95194
#	111099
#	134583
#	147494
#	171902
#	196641
#	213763
#	235159
#	253695
#	265866
#	280945
#
# Disc length: 3987 seconds
#
# Revision: 1
# Processed by: cddbd v1.5.2PL0 Copyright (c) Steve Scherf et al.
# Submitted via: audiograbber 1.83.01
#
DISCID=e10f9111
DTITLE=S(w)ing and Praise - RuhrGEB(i)ET
DYEAR=2015
DGENRE=Pop
TTITLE0=Schick dein Gebet zum Himmel
TTITLE1=Ubi caritas et amor
TTITLE2=Joyful Yoyful
TTITLE3=Another Day in Paradise
TTITLE4=Frischluft
TTITLE5=For the Beauty of the Earth
TTITLE6=I paradisi
TTITLE7=Lean on Me
TTITLE8=I'll Never Forget
TTITLE9=In Your Arms
TTITLE10=Still Haven't Found What I'm Looking For
TTITLE11=Hallelujah - He Shall Reign
TTITLE12=He Loved Me
TTITLE13=Hallelujah (Leonard Cohen)
TTITLE14=In the Beauty of Holiness
TTITLE15=Oh Happy Day
TTITLE16=Free Your Soul
EXTD=
EXTT0=
EXTT1=
EXTT2=
EXTT3=
EXTT4=
EXTT5=
EXTT6=
EXTT7=
EXTT8=
EXTT9=
EXTT10=
EXTT11=
EXTT12=
EXTT13=
EXTT14=
EXTT15=
EXTT16=
PLAYORDER=
